<svg width="640" height="640" viewBox="0 0 640 640" fill="none" xmlns="http://www.w3.org/2000/svg">
<rect width="640" height="640" fill="white"/>
<path d="M320 120C364.57 120 405.733 134.582 438.984 159.231L433.105 167.322C401.505 143.873 362.373 130 320 130C215.066 130 130 215.066 130 320C130 424.934 215.066 510 320 510C361.108 510 399.165 496.943 430.255 474.753L436.133 482.844C403.393 506.234 363.305 520 320 520C209.543 520 120 430.457 120 320C120 209.543 209.543 120 320 120ZM320 170C353.586 170 384.593 181.039 409.593 199.686L380.198 240.144C363.451 227.499 342.602 220 320 220C264.772 220 220 264.772 220 320C220 375.228 264.772 420 320 420C341.336 420 361.11 413.316 377.347 401.931L406.741 442.39C382.252 459.777 352.32 470 320 470C237.157 470 170 402.843 170 320C170 237.157 237.157 170 320 170Z" fill="black"/>
<path d="M468.492 171.508C506.495 209.51 530 262.01 530 320C530 377.99 506.495 430.49 468.492 468.492L457.886 457.886C493.174 422.598 515 373.848 515 320C515 266.152 493.174 217.402 457.886 182.114L468.492 171.508ZM447.279 192.721C479.853 225.294 500 270.294 500 320C500 369.706 479.853 414.706 447.279 447.279L436.673 436.673C466.532 406.814 485 365.563 485 320C485 274.437 466.532 233.186 436.673 203.327L447.279 192.721ZM426.066 213.934C453.211 241.078 470 278.579 470 320C470 361.421 453.211 398.922 426.066 426.066L415.459 415.459C439.889 391.029 455 357.279 455 320C455 282.721 439.889 248.971 415.459 224.541L426.066 213.934ZM404.853 235.147C426.568 256.863 440 286.863 440 320C440 353.137 426.568 383.137 404.853 404.853L394.246 394.246C413.247 375.245 425 348.995 425 320C425 291.005 413.247 264.755 394.246 245.754L404.853 235.147ZM383.64 256.36C399.926 272.647 410 295.147 410 320C410 344.853 399.926 367.353 383.64 383.64L373.033 373.033C386.606 359.461 395 340.711 395 320C395 299.289 386.606 280.539 373.033 266.967L383.64 256.36Z" fill="#00FBA7"/>
</svg>
